<svg width="16.000000" height="16.000000" viewBox="0 0 16 16" fill="none" xmlns="http://www.w3.org/2000/svg" xmlns:xlink="http://www.w3.org/1999/xlink">
	<desc>
			Created with Pixso.
	</desc>
	<defs>
		<clipPath id="clip4_10121">
			<rect id="属性 1=Icon,Property 1=Search" width="16.000000" height="16.000000" fill="white" fill-opacity="0"/>
		</clipPath>
	</defs>
	<g clip-path="url(#clip4_10121)">
		<path id="Union 3" d="M13.4127 7.00894C13.4127 7.87894 13.2446 8.71155 12.9082 9.50684C12.6824 10.0405 12.3922 10.5317 12.0374 10.9804L14.3586 13.3015C14.6556 13.5984 14.6557 14.0651 14.3587 14.3621C14.0617 14.6591 13.595 14.6591 13.298 14.3622L10.9778 12.0421C10.5264 12.4006 10.0317 12.6936 9.49396 12.9211C8.69867 13.2574 7.86603 13.4256 6.99609 13.4256C6.1261 13.4256 5.29346 13.2574 4.49817 12.9211C3.73041 12.5963 3.05066 12.138 2.4588 11.5462C1.867 10.9544 1.40869 10.2746 1.08398 9.50684C0.74762 8.71155 0.579407 7.87894 0.579407 7.00894C0.579407 6.13898 0.74762 5.30634 1.08398 4.51108C1.40869 3.74332 1.867 3.06351 2.4588 2.47168C3.05066 1.87988 3.73041 1.4216 4.49817 1.09686C5.29346 0.760468 6.1261 0.592285 6.99609 0.592285C7.86603 0.592285 8.69867 0.760468 9.49396 1.09686C10.2617 1.4216 10.9415 1.87988 11.5333 2.47168C12.1252 3.06351 12.5834 3.74332 12.9082 4.51108C13.2446 5.30634 13.4127 6.13898 13.4127 7.00894M10.2275 10.7151C9.8338 11.0596 9.39453 11.3344 8.90961 11.5396C8.30109 11.7969 7.66327 11.9256 6.99609 11.9256C6.32886 11.9256 5.69104 11.7969 5.08252 11.5396C4.49438 11.2908 3.97339 10.9395 3.51947 10.4856C3.06555 10.0316 2.71423 9.51065 2.46545 8.92252C2.20807 8.314 2.07941 7.67615 2.07941 7.00894C2.07941 6.34177 2.20807 5.70392 2.46545 5.0954C2.71423 4.50726 3.06555 3.98624 3.51947 3.53235C3.97339 3.07843 4.49438 2.72711 5.08252 2.47836C5.69104 2.22098 6.32886 2.09229 6.99609 2.09229C7.66327 2.09229 8.30109 2.22098 8.90961 2.47836C9.49774 2.72711 10.0188 3.07846 10.4727 3.53235C10.9266 3.98624 11.2779 4.50726 11.5267 5.0954C11.7841 5.70392 11.9127 6.34177 11.9127 7.00894C11.9127 7.67615 11.7841 8.314 11.5267 8.92252C11.3217 9.40729 11.0469 9.84647 10.7025 10.24L10.2275 10.7151L10.2275 10.7151Z" clip-rule="evenodd" fill="#8D8D8D" fill-opacity="1.000000" fill-rule="evenodd"/>
	</g>
</svg>
