<svg width="16.000000" height="16.000000" viewBox="0 0 16 16" fill="none" xmlns="http://www.w3.org/2000/svg" xmlns:xlink="http://www.w3.org/1999/xlink">
	<desc>
			Created with Pixso.
	</desc>
	<defs>
		<clipPath id="clip4_10135">
			<rect id="属性 1=Icon,Property 1=时间" width="16.000000" height="16.000000" transform="translate(-0.500000 0.000000)" fill="white" fill-opacity="0"/>
		</clipPath>
	</defs>
	<g clip-path="url(#clip4_10135)">
		<path id="Union 16" d="M14.9145 8.0025C14.9145 9.00812 14.7202 9.97052 14.3314 10.8896C13.9561 11.777 13.4263 12.5628 12.7422 13.2469C12.0581 13.931 11.2724 14.4607 10.3849 14.836C9.46582 15.2248 8.50348 15.4192 7.49786 15.4192C6.49225 15.4192 5.52985 15.2248 4.61072 14.836C3.72333 14.4607 2.93756 13.931 2.25348 13.2469C1.5694 12.5628 1.03967 11.777 0.664307 10.8896C0.275574 9.97052 0.0811768 9.00812 0.0811768 8.0025C0.0811768 6.99689 0.275574 6.03452 0.664307 5.11539C1.03967 4.22797 1.5694 3.44223 2.25348 2.75815C2.93756 2.07404 3.72333 1.54434 4.61072 1.16901C5.52985 0.780243 6.49225 0.585846 7.49786 0.585846C8.50348 0.585846 9.46582 0.780243 10.3849 1.16901C11.2724 1.54434 12.0581 2.07404 12.7422 2.75815C13.4263 3.44223 13.9561 4.22797 14.3314 5.11539C14.7202 6.03452 14.9145 6.99689 14.9145 8.0025M13.4145 8.0025C13.4145 7.19968 13.2596 6.4321 12.9498 5.69971C12.6505 4.99194 12.2277 4.36496 11.6816 3.81879C11.1354 3.27261 10.5084 2.84985 9.80066 2.55051C9.0683 2.24072 8.30066 2.08585 7.49786 2.08585C6.69501 2.08585 5.92743 2.24072 5.19507 2.55051C4.48724 2.84985 3.86029 3.27261 3.31415 3.81879C2.76794 4.36496 2.34521 4.99194 2.04584 5.69971C1.73608 6.4321 1.58118 7.19968 1.58118 8.0025C1.58118 8.80533 1.73608 9.57294 2.04584 10.3053C2.34521 11.0131 2.76794 11.6401 3.31415 12.1862C3.86029 12.7324 4.48724 13.1552 5.19507 13.4545C5.92743 13.7643 6.69501 13.9192 7.49786 13.9192C8.30066 13.9192 9.0683 13.7643 9.80066 13.4545C10.5084 13.1552 11.1354 12.7324 11.6816 12.1862C12.2277 11.64 12.6505 11.0131 12.9498 10.3053C13.2596 9.57294 13.4145 8.80536 13.4145 8.0025L13.4145 8.0025M8.2511 4.00146L8.25073 7.6937L10.8575 10.3004C11.1545 10.5974 11.1545 11.0641 10.8575 11.3611C10.5605 11.6581 10.0938 11.6581 9.79681 11.3611L6.97034 8.53464C6.82391 8.38818 6.75067 8.2114 6.75067 8.00424L6.7511 4.00131C6.75116 3.5813 7.08118 3.25134 7.50116 3.25137C7.92114 3.25143 8.25116 3.58145 8.2511 4.00146L8.2511 4.00146Z" clip-rule="evenodd" fill="#8D8D8D" fill-opacity="1.000000" fill-rule="evenodd"/>
	</g>
</svg>
