<?xml version="1.0" standalone="no"?>
<!DOCTYPE svg PUBLIC "-//W3C//DTD SVG 20010904//EN"
 "http://www.w3.org/TR/2001/REC-SVG-20010904/DTD/svg10.dtd">
<svg version="1.0" xmlns="http://www.w3.org/2000/svg"
 width="260.000000pt" height="260.000000pt" viewBox="0 0 260.000000 260.000000"
 preserveAspectRatio="xMidYMid meet">
<metadata>
Created by potrace 1.14, written by Peter Selinger 2001-2017
</metadata>
<g transform="translate(0.000000,260.000000) scale(0.100000,-0.100000)"
fill="#000000" stroke="none">
<path d="M270 1295 l0 -795 425 0 425 0 0 155 0 155 -285 0 -285 0 0 640 0
640 -140 0 -140 0 0 -795z"/>
<path d="M1260 1295 l0 -795 140 0 140 0 2 467 3 467 279 -467 278 -467 114 0
114 0 0 795 0 795 -135 0 -135 0 -2 -472 -3 -472 -280 470 -280 469 -118 3
-117 3 0 -796z"/>
</g>
</svg>
